<?xml version="1.0" standalone="no"?>
<!DOCTYPE svg PUBLIC "-//W3C//DTD SVG 20010904//EN"
 "http://www.w3.org/TR/2001/REC-SVG-20010904/DTD/svg10.dtd">
<svg version="1.0" xmlns="http://www.w3.org/2000/svg"
 width="256.000000pt" height="256.000000pt" viewBox="0 0 256.000000 256.000000"
 preserveAspectRatio="xMidYMid meet">
<metadata>
Created by potrace 1.11, written by Peter Selinger 2001-2013
</metadata>
<g transform="translate(0.000000,256.000000) scale(0.100000,-0.100000)"
fill="#000000" stroke="none">
<path d="M580 2550 c-191 -15 -306 -63 -410 -169 -69 -70 -112 -144 -136 -232
-29 -110 -36 -323 -31 -979 4 -712 6 -728 69 -860 42 -88 150 -196 238 -238
137 -66 153 -67 975 -67 821 0 831 1 965 67 88 43 196 151 238 238 63 132 65
148 69 860 5 656 -2 869 -31 979 -39 143 -147 274 -277 336 -141 67 -148 67
-899 70 -371 2 -718 -1 -770 -5z m948 -482 l3 -48 -245 0 -246 0 0 50 0 50
243 -2 242 -3 3 -47z m-207 -98 l209 0 0 -45 0 -45 -245 0 -245 0 0 43 c0 53
6 60 44 53 16 -3 122 -6 237 -6z m209 -385 l0 -245 161 -2 160 -3 -285 -278
-285 -278 -283 280 -283 280 163 1 162 0 0 245 0 245 245 0 245 0 0 -245z
m320 -1060 l0 -75 -570 0 -570 0 0 75 0 75 570 0 570 0 0 -75z"/>
</g>
</svg>
