<svg width="36" height="41" viewBox="0 0 36 41" fill="none" xmlns="http://www.w3.org/2000/svg">
<path d="M17.571 12.2885C20.8649 12.2885 23.5448 14.9683 23.5448 18.2623C23.5448 21.5562 20.8649 24.2361 17.571 24.2361C14.277 24.2361 11.5972 21.5562 11.5972 18.2623C11.5972 14.9683 14.277 12.2885 17.571 12.2885ZM17.571 9.66273C12.8291 9.66273 8.97144 13.5206 8.97144 18.2623C8.97144 23.0039 12.8291 26.8619 17.571 26.8619C17.9459 26.8619 18.3146 26.835 18.6771 26.7883L13.1684 34.2198C12.7367 34.8024 12.8588 35.6248 13.4413 36.0563C13.6764 36.2307 13.9505 36.3148 14.2221 36.3148C14.6239 36.3148 15.0202 36.131 15.278 35.7835L24.2706 23.6515C24.2808 23.6375 24.2892 23.6232 24.2988 23.6092C25.4689 22.1398 26.1706 20.282 26.1706 18.2623C26.1706 13.5206 22.3128 9.66273 17.571 9.66273Z" fill="#FF0000"/>
<path d="M18.6802 39.9034C18.5107 39.9034 18.3457 39.8488 18.2098 39.7476C18.042 39.6226 17.9281 39.4342 17.898 39.2273C17.8679 39.0203 17.9183 38.8077 18.0435 38.6402L27.7717 25.615C29.3275 23.4675 30.1534 20.9216 30.1534 18.2621C30.1534 11.3244 24.509 5.68023 17.5712 5.68023C10.6336 5.68023 4.98938 11.3244 4.98938 18.2621C4.98938 22.4564 7.07651 26.3631 10.5725 28.7126C10.7512 28.8326 10.873 29.0206 10.9095 29.2331C10.9459 29.4452 10.8939 29.6632 10.7655 29.836L9.19921 31.9451C9.04494 32.1528 8.80731 32.2633 8.56613 32.2633C8.41278 32.2633 8.25799 32.2186 8.12223 32.1258C3.52983 28.9861 0.788086 23.8034 0.788086 18.2621C0.788086 9.00778 8.31694 1.47893 17.5712 1.47893C26.8256 1.47893 34.3547 9.00778 34.3547 18.2621C34.3547 22.1265 32.9606 25.9096 30.3225 29.2037L22.5739 39.5869C22.4251 39.7861 22.1912 39.9034 21.9427 39.9034H18.6802Z" fill="white"/>
<path d="M17.5709 0.691162C7.88229 0.691162 0 8.57344 0 18.262C0 24.0636 2.87001 29.4895 7.67734 32.7761C7.94872 32.9617 8.25856 33.0511 8.56526 33.0511C9.04775 33.0511 9.52289 32.83 9.83129 32.4147L11.3976 30.3056C11.6545 29.96 11.7585 29.524 11.6855 29.0995C11.6126 28.6751 11.3691 28.2989 11.0116 28.0587C7.73366 25.8559 5.77678 22.1935 5.77678 18.262C5.77678 11.7587 11.0675 6.46794 17.5709 6.46794C24.0743 6.46794 29.3653 11.7587 29.3653 18.262C29.3653 20.7509 28.5935 23.1336 27.1331 25.1531L17.4121 38.1688C17.162 38.5037 17.0552 38.9244 17.1153 39.3381C17.1754 39.7518 17.3974 40.1248 17.7326 40.3746L17.7381 40.3787C18.0102 40.5815 18.3405 40.6912 18.6799 40.6912H21.9423C22.4395 40.6912 22.9076 40.4564 23.2049 40.0579L30.9454 29.6856C33.6908 26.2528 35.1421 22.303 35.1421 18.262C35.1421 8.57344 27.2597 0.691162 17.5709 0.691162ZM17.5709 2.26665C26.3911 2.26665 33.5666 9.44219 33.5666 18.262C33.5666 22.2497 32.002 25.8497 29.6989 28.7217L21.9423 39.1157H18.6799L18.6744 39.1116L28.4026 26.0864C29.9974 23.8849 30.9408 21.1822 30.9408 18.262C30.9408 10.8901 24.9431 4.89246 17.5709 4.89246C10.1989 4.89246 4.20129 10.8901 4.20129 18.262C4.20129 22.8833 6.55822 26.9641 10.1329 29.3663L8.56644 31.4755C4.34913 28.5922 1.57549 23.7452 1.57549 18.262C1.57549 9.44219 8.7509 2.26665 17.5709 2.26665Z" fill="#FF0000"/>
</svg>
